<mxfile host="Electron" agent="Mozilla/5.0 (Windows NT 10.0; Win64; x64) AppleWebKit/537.36 (KHTML, like Gecko) draw.io/26.0.9 Chrome/128.0.6613.186 Electron/32.2.5 Safari/537.36" version="26.0.9">
  <diagram id="C5RBs43oDa-KdzZeNtuy" name="Page-1">
    <mxGraphModel dx="1434" dy="836" grid="1" gridSize="10" guides="1" tooltips="1" connect="1" arrows="1" fold="1" page="1" pageScale="1" pageWidth="827" pageHeight="1169" math="0" shadow="0">
      <root>
        <mxCell id="WIyWlLk6GJQsqaUBKTNV-0" />
        <mxCell id="WIyWlLk6GJQsqaUBKTNV-1" parent="WIyWlLk6GJQsqaUBKTNV-0" />
        <mxCell id="GUppFF2roy0985sOQleH-3" style="edgeStyle=orthogonalEdgeStyle;rounded=0;orthogonalLoop=1;jettySize=auto;html=1;entryX=0.5;entryY=0;entryDx=0;entryDy=0;" edge="1" parent="WIyWlLk6GJQsqaUBKTNV-1" source="GUppFF2roy0985sOQleH-0" target="GUppFF2roy0985sOQleH-2">
          <mxGeometry relative="1" as="geometry" />
        </mxCell>
        <mxCell id="GUppFF2roy0985sOQleH-0" value="Start" style="strokeWidth=2;html=1;shape=mxgraph.flowchart.start_2;whiteSpace=wrap;" vertex="1" parent="WIyWlLk6GJQsqaUBKTNV-1">
          <mxGeometry x="70" y="60" width="100" height="100" as="geometry" />
        </mxCell>
        <mxCell id="GUppFF2roy0985sOQleH-2" value="What month&lt;div&gt;is it?&lt;/div&gt;" style="shape=parallelogram;html=1;strokeWidth=2;perimeter=parallelogramPerimeter;whiteSpace=wrap;rounded=1;arcSize=12;size=0.23;" vertex="1" parent="WIyWlLk6GJQsqaUBKTNV-1">
          <mxGeometry x="264" y="60" width="150" height="90" as="geometry" />
        </mxCell>
        <mxCell id="GUppFF2roy0985sOQleH-9" style="edgeStyle=orthogonalEdgeStyle;rounded=0;orthogonalLoop=1;jettySize=auto;html=1;" edge="1" parent="WIyWlLk6GJQsqaUBKTNV-1" source="GUppFF2roy0985sOQleH-6" target="GUppFF2roy0985sOQleH-8">
          <mxGeometry relative="1" as="geometry" />
        </mxCell>
        <mxCell id="GUppFF2roy0985sOQleH-6" value="Integer 1-12" style="html=1;strokeWidth=2;shape=manualInput;whiteSpace=wrap;rounded=1;size=26;arcSize=11;" vertex="1" parent="WIyWlLk6GJQsqaUBKTNV-1">
          <mxGeometry x="500" y="100" width="100" height="60" as="geometry" />
        </mxCell>
        <mxCell id="GUppFF2roy0985sOQleH-7" style="edgeStyle=orthogonalEdgeStyle;rounded=0;orthogonalLoop=1;jettySize=auto;html=1;entryX=0.5;entryY=0.167;entryDx=0;entryDy=0;entryPerimeter=0;" edge="1" parent="WIyWlLk6GJQsqaUBKTNV-1" source="GUppFF2roy0985sOQleH-2" target="GUppFF2roy0985sOQleH-6">
          <mxGeometry relative="1" as="geometry" />
        </mxCell>
        <mxCell id="GUppFF2roy0985sOQleH-11" style="edgeStyle=orthogonalEdgeStyle;rounded=0;orthogonalLoop=1;jettySize=auto;html=1;" edge="1" parent="WIyWlLk6GJQsqaUBKTNV-1" source="GUppFF2roy0985sOQleH-8" target="GUppFF2roy0985sOQleH-10">
          <mxGeometry relative="1" as="geometry" />
        </mxCell>
        <mxCell id="GUppFF2roy0985sOQleH-8" value="create list of&lt;div&gt;months in the year&lt;/div&gt;" style="shape=parallelogram;html=1;strokeWidth=2;perimeter=parallelogramPerimeter;whiteSpace=wrap;rounded=1;arcSize=12;size=0.23;" vertex="1" parent="WIyWlLk6GJQsqaUBKTNV-1">
          <mxGeometry x="470.84" y="190" width="158.33" height="95" as="geometry" />
        </mxCell>
        <mxCell id="GUppFF2roy0985sOQleH-16" style="edgeStyle=orthogonalEdgeStyle;rounded=0;orthogonalLoop=1;jettySize=auto;html=1;" edge="1" parent="WIyWlLk6GJQsqaUBKTNV-1" source="GUppFF2roy0985sOQleH-10" target="GUppFF2roy0985sOQleH-15">
          <mxGeometry relative="1" as="geometry" />
        </mxCell>
        <mxCell id="GUppFF2roy0985sOQleH-10" value="create list of&lt;br&gt;seasons in the&lt;br&gt;year" style="shape=parallelogram;html=1;strokeWidth=2;perimeter=parallelogramPerimeter;whiteSpace=wrap;rounded=1;arcSize=12;size=0.23;" vertex="1" parent="WIyWlLk6GJQsqaUBKTNV-1">
          <mxGeometry x="264" y="192.5" width="150" height="90" as="geometry" />
        </mxCell>
        <mxCell id="GUppFF2roy0985sOQleH-18" style="edgeStyle=orthogonalEdgeStyle;rounded=0;orthogonalLoop=1;jettySize=auto;html=1;" edge="1" parent="WIyWlLk6GJQsqaUBKTNV-1" source="GUppFF2roy0985sOQleH-15" target="GUppFF2roy0985sOQleH-17">
          <mxGeometry relative="1" as="geometry" />
        </mxCell>
        <mxCell id="GUppFF2roy0985sOQleH-15" value="determine&lt;br&gt;month based&lt;div&gt;on user input&lt;br&gt;compared to&lt;/div&gt;&lt;div&gt;list&lt;/div&gt;" style="strokeWidth=2;html=1;shape=mxgraph.flowchart.decision;whiteSpace=wrap;" vertex="1" parent="WIyWlLk6GJQsqaUBKTNV-1">
          <mxGeometry x="264" y="320" width="150" height="150" as="geometry" />
        </mxCell>
        <mxCell id="GUppFF2roy0985sOQleH-21" style="edgeStyle=orthogonalEdgeStyle;rounded=0;orthogonalLoop=1;jettySize=auto;html=1;" edge="1" parent="WIyWlLk6GJQsqaUBKTNV-1" source="GUppFF2roy0985sOQleH-17" target="GUppFF2roy0985sOQleH-20">
          <mxGeometry relative="1" as="geometry" />
        </mxCell>
        <mxCell id="GUppFF2roy0985sOQleH-17" value="determine season&lt;div&gt;based on&lt;/div&gt;&lt;div&gt;month&lt;/div&gt;" style="strokeWidth=2;html=1;shape=mxgraph.flowchart.decision;whiteSpace=wrap;" vertex="1" parent="WIyWlLk6GJQsqaUBKTNV-1">
          <mxGeometry x="460" y="320" width="150" height="150" as="geometry" />
        </mxCell>
        <mxCell id="GUppFF2roy0985sOQleH-20" value="spring = 3,4,5&lt;div&gt;summer = 6,7,8&lt;/div&gt;&lt;div&gt;fall = 9,10,11&lt;/div&gt;&lt;div&gt;winter = 12,1,2&lt;/div&gt;" style="shape=parallelogram;html=1;strokeWidth=2;perimeter=parallelogramPerimeter;whiteSpace=wrap;rounded=1;arcSize=12;size=0.23;" vertex="1" parent="WIyWlLk6GJQsqaUBKTNV-1">
          <mxGeometry x="426.66999999999996" y="500" width="183.33" height="110" as="geometry" />
        </mxCell>
        <mxCell id="GUppFF2roy0985sOQleH-25" style="edgeStyle=orthogonalEdgeStyle;rounded=0;orthogonalLoop=1;jettySize=auto;html=1;" edge="1" parent="WIyWlLk6GJQsqaUBKTNV-1" source="GUppFF2roy0985sOQleH-22" target="GUppFF2roy0985sOQleH-24">
          <mxGeometry relative="1" as="geometry" />
        </mxCell>
        <mxCell id="GUppFF2roy0985sOQleH-22" value="Print the current&lt;div&gt;month and season&lt;/div&gt;" style="strokeWidth=2;html=1;shape=mxgraph.flowchart.display;whiteSpace=wrap;" vertex="1" parent="WIyWlLk6GJQsqaUBKTNV-1">
          <mxGeometry x="200" y="520" width="158.33" height="95" as="geometry" />
        </mxCell>
        <mxCell id="GUppFF2roy0985sOQleH-23" style="edgeStyle=orthogonalEdgeStyle;rounded=0;orthogonalLoop=1;jettySize=auto;html=1;entryX=1;entryY=0.5;entryDx=0;entryDy=0;entryPerimeter=0;" edge="1" parent="WIyWlLk6GJQsqaUBKTNV-1" source="GUppFF2roy0985sOQleH-20" target="GUppFF2roy0985sOQleH-22">
          <mxGeometry relative="1" as="geometry" />
        </mxCell>
        <mxCell id="GUppFF2roy0985sOQleH-24" value="End" style="strokeWidth=2;html=1;shape=mxgraph.flowchart.terminator;whiteSpace=wrap;" vertex="1" parent="WIyWlLk6GJQsqaUBKTNV-1">
          <mxGeometry x="350" y="660" width="166.67" height="100" as="geometry" />
        </mxCell>
      </root>
    </mxGraphModel>
  </diagram>
</mxfile>
